# xmcd
#
# Track frame offsets: 
#        150
#        16923
#        26623
#        39417
#        52416
#        67654
#        83673
#        98169
#        112001
#        127333
#        144973
#        157279
#        175660
#        184734
#        199675
#        218716
#        231860
#        243061
#        253473
#        265065
#        270139
#        280109
#        293542
#        307077
#
# Disc length: 4203 seconds
#
# Revision: 0
# Processed by: cddbd v1.5.2PL0 Copyright (c) Steve Scherf et al.
# Submitted via: ExactAudioCopyFreeDBPlugin 1.0
#
DISCID=56106918
DTITLE=DJ  Muro - Diggin' P-Vine Planet Funk
DYEAR=2013
DGENRE=Funk
TTITLE0=Nicole Willis and The Soul Investigators - Now I Can Fly
TTITLE1=Nicole Willis and The Soul Investigators - Soul Investigators Th
TTITLE1=eme
TTITLE2=The Soul Investigators - Baby, It's Delicious
TTITLE3=New Cool Collective - Pambiche
TTITLE4=Funkshone - Purification Parts 1 and 2
TTITLE5=The Underbelly - I Can’t Live Without You (feat. Roxie Ray)
TTITLE6=Eddie Roberts' West Coast Sounds - Break The Fast
TTITLE7=Hypnotic Brass Ensemble - Alyo
TTITLE8=Mountain Mocha Kilimanjaro - Stompin' Joe
TTITLE9=The Soul Immigrants - The Ghetto There’s No Way Out
TTITLE10=The Soul Immigrants - The Ghetto There’s No Way Out [Broken J
TTITLE10=azz Remix]
TTITLE11=Speedometer - Again and Again (Instrumental)
TTITLE12=Funkshone - Hotwheels (The Chase)
TTITLE13=Undercover Express - Truck Turner
TTITLE14=Speedometer - Kool and The Gang
TTITLE15=The Sweet Vandals - Do It Right
TTITLE16=Nick Pride and The Pimptones - Midnight Feast Of Jazz
TTITLE17=Eddie Roberts - Diggin' Deeper
TTITLE18=Build An Ark - You've Gotta Have Freedom [Two Banks Of Four R
TTITLE18=emix]
TTITLE19=Build An Ark - You've Gotta Have Freedom
TTITLE20=Bluey - Got To Let My Feelings Show
TTITLE21=Katzuma - With Time
TTITLE22=Rad. - As Of Today
TTITLE23=The Brand New Heavies - Turn The Music Up
EXTD=
EXTT0=
EXTT1=
EXTT2=
EXTT3=
EXTT4=
EXTT5=
EXTT6=
EXTT7=
EXTT8=
EXTT9=
EXTT10=
EXTT11=
EXTT12=
EXTT13=
EXTT14=
EXTT15=
EXTT16=
EXTT17=
EXTT18=
EXTT19=
EXTT20=
EXTT21=
EXTT22=
EXTT23=
PLAYORDER=
